<svg width="37" height="37" viewBox="0 0 37 37" fill="none" xmlns="http://www.w3.org/2000/svg">
<path fill-rule="evenodd" clip-rule="evenodd" d="M31.0784 17.76C31.0784 23.4817 25.4462 28.12 18.4984 28.12C16.0513 28.0962 13.7429 28.6758 11.6016 29.2135C9.30932 29.789 7.20852 30.3165 5.33398 30.0041C5.4548 27.1041 8.59436 24.1486 8.59436 24.1486C6.91799 22.3885 5.91845 20.1704 5.91845 17.76C5.91845 12.0384 8.87845 7.40002 18.4984 7.40002C28.1184 7.40002 31.0784 12.0384 31.0784 17.76ZM18.5 18.9837C19.3174 18.9837 19.98 18.3211 19.98 17.5037C19.98 16.6863 19.3174 16.0237 18.5 16.0237C17.6826 16.0237 17.02 16.6863 17.02 17.5037C17.02 18.3211 17.6826 18.9837 18.5 18.9837ZM15.3787 17.5037C15.3787 18.3211 14.7161 18.9837 13.8987 18.9837C13.0813 18.9837 12.4187 18.3211 12.4187 17.5037C12.4187 16.6863 13.0813 16.0237 13.8987 16.0237C14.7161 16.0237 15.3787 16.6863 15.3787 17.5037ZM23.1011 18.9837C23.9185 18.9837 24.5811 18.3211 24.5811 17.5037C24.5811 16.6863 23.9185 16.0237 23.1011 16.0237C22.2837 16.0237 21.6211 16.6863 21.6211 17.5037C21.6211 18.3211 22.2837 18.9837 23.1011 18.9837Z" fill="#3A4276"/>
</svg>
